<mxfile host="app.diagrams.net" agent="Mozilla/5.0 (X11; Ubuntu; Linux x86_64; rv:129.0) Gecko/20100101 Firefox/129.0" version="24.7.7">
  <diagram name="Page-1" id="Y3uxgWOh9LbF0khLxqsi">
    <mxGraphModel dx="880" dy="483" grid="1" gridSize="10" guides="1" tooltips="1" connect="1" arrows="1" fold="1" page="1" pageScale="1" pageWidth="850" pageHeight="1100" math="0" shadow="0">
      <root>
        <mxCell id="0" />
        <mxCell id="1" parent="0" />
        <mxCell id="stcTqFC_c9L13YkCS5JH-1" value="" style="shape=image;verticalLabelPosition=bottom;labelBackgroundColor=default;verticalAlign=top;aspect=fixed;imageAspect=0;image=data:image/png,iVBORw0KGgoAAAANSUhEUgAAAOEAAADhCAMAAAAJbSJIAAAAk1BMVEX////sVz/rTjXrSi351dHsUTbylovrTC/5zcjsUzrrTDLqQSLsVTz4ysTtW0PsUjnwf2786OX+9fPrRif74Nz1r6btYEn2tq398e/3wLrzn5Txh3j50czwfWzveWf85uLublvtZ1PylIb73NjtZE/0qaDvdGD2vLXqOQ/0pJn4xL71rKPvblnxjYDzm5DqPBnpMgAJlIu6AAAGl0lEQVR4nO2da3eiOhSGhRgpAeUS71rUYnWsts7//3WDPccKCgiSnaSu/XycxSBvE/YtO6HVQhAEQRAEQRAEQRAEQRAEQRAEQRAEQRAEQX4L40U/jtvtOO73x6HqhxFMvzuZTAadaDU0KHN7683bbjuZfLSfQmfYnm4sblkWY57tusYJ1/ZMlvwT4cPZNlD9hI1YjCJKqG0U4nqMr6dt1c/5GMFXtGSsRN2PSkpWkR+rft66zJfUtCvIM87T1uq9q37mGoy3B1JZ3Y9KxjrB7zA9H0teZXLmQDmdqn76+8RRmWW5L3I4UK2gnO0bb6IvwSXRSF8HMl4T2kzfCdvqdVUryWe8dxuO3xmX+Dq6yG0Sj4kRmOCRmXZm1efi9H1rtMaqJWXYbwS8gFlc41Mji/PV1ILmSmRrXYYx9Jl4fSdsb65a2zfzPx6MwGQYnS/V6hImBErfCetVtb7WzoIUaBjsTfHLOAMdwRMm7asUCGVj0rjWkwtMTOpKWQwnR2AikSqSuAN/B894kZIo9U2awESip8CiDoDdxJXElXSBXS5ToGHQmWSBgSQjc4HIrTYGK4Bk4p7ErUyF4tPBCnCJBrUrfY6ekPgqzntiKxaVJXYkCQwb1Xyb4EjyihOpnjCN9yZFYF+ZwMSeSlnXiMCKFhVgEpLFkcIhlGNPjyoFJhLBB/FD6RAmxsYHFjiWmDLlQ4AXGL9UhGtZYMs28lOKHIUTSIWq38ITHmiROFIVr6WB9IlqfeEZewmncKgmp7iGgxUXX5S7iv/wwAIbBaWLfI5QChUlvrdwoPXvWL23/x+oPLGjjUKDgggM17pM0iSueYFQ+KGJJT1hRxAK3/SZpIZrANSkQlO1rDRsJF5hV6NJmpiaT/EK9xokThc8CIUavYaJqdmIVzhTWUS8BaB1UashNAwi3CMGktd870GFL5jOtTKlEBnUVLNZKr7kppmhAVgRPuiS/Z4hgveCjbXJfs9YH2IVBroNocEEV/djrWK2E6Lz/LZmzkK8u9ChnJ9FdGS61W6WuoJ7+Ub6KVyLVbjXKsM/4Q7FKnzXLWhDhbUZPP17qKGlEWxLNfSHgovCzx/TxNqNoei49Plzi/Dp88PWSjeFonP8lq9dnUZ0SXinW1Ajrta2mM78hKVus7Tn3zCbPFJ/2xrMsxN0E5i4/Bs80qvfS7Qn+kkrwe7V7XnTbbXiLrZbb6KGGjTM1sSqt//rRfXz1qdmuKpTg0lFaqYc3V9lZr6p2csfatToVRGrZhvK4rfZUpfWDebef9ebWF/gqchm0iI8sa+pXfhDVWH0kf6FdqeQT0NkwkGi4l+qyF54Z21wEGaJXA66UeRxZoKqjK6p4xl037yKKeDY2gps7YQs2bg91TqKiYW4E8htME0RU2akcjZpP0QgxGFAtIuKYi6kGK7zLBXT3+4aqnUUsxTjLaim/r7VXokKamxZp3rUItzXP7a7EPaq9Gy9awad5XptcKELwzYh6/X60LlKYedT3+ilWXeuV53Gu9kwc8nwc9CsN3O8IdR2XfEljuSeNiVROsfrck5YFuJkl/DbVs4lw0UThUvY2oaVOrQ05sy8xUmPc0jyLuFNPCzsiaUJ/LJwFpGcpzfNY+pw2neee4nTYH0RfBnK/DmFJhzmjY9pktQI9QoueX18noJvyr+0HQb542Oy5eVxjvmXmPTxk9034AoPPwqdAoWXZprwT4FC/vg0BW/bv1Tmx6xgCqYq20V/hOHjSTV4fxS/2JFlvsK0GfnKN0ZOgx2KfQdWoJcaoGnuCJFD6nGC3GlqNWp723LIeUp5eoFs49yMIuN/M3Vf/3g7iuTYsN1mRolVDbOSWfLY+XrCdtmf6vacLEd6fYx5EDnXNP+0QtDuVuHlYxA5dzV6xB+c/0f7tqjbz95znlO4779kL2kUstUmuBfk0UijjyA8Rnk/lc4VjKq8l7oXqGM8ZFK6LUznEk11yuI8uON0ZFLW9qdzMbg6ZdnIU4xhafutzosyldk9vS0t30MMcQCEXOLNnTjd9OUGWQ8QvxTSHWzufwvKo6+j4ltcMZc/qWOrLM+o9rFHm5Xc4gr+KfdjF2FHeo8tHUo9YX+qoGnKBTtzLw/wwlsesIe0ZlHT2icz4VJzqIvMOEjNrj3RO2TLGCvZtSc1Wn9VsR+KgxybWICKg+o8iZM0YeQI/IZsFWwylBy4LfYHi8jD8xU0pvTbMnmCdBJBEARBEARBEARBEARBEARBEARBEARBEOQZ+AfeepjwGUMawAAAAABJRU5ErkJggg==;" vertex="1" parent="1">
          <mxGeometry x="40" y="90" width="90" height="90" as="geometry" />
        </mxCell>
        <mxCell id="stcTqFC_c9L13YkCS5JH-2" value="Open weather API" style="text;html=1;align=center;verticalAlign=middle;resizable=0;points=[];autosize=1;strokeColor=none;fillColor=none;" vertex="1" parent="1">
          <mxGeometry x="10" y="70" width="120" height="30" as="geometry" />
        </mxCell>
        <mxCell id="stcTqFC_c9L13YkCS5JH-3" value="" style="endArrow=classic;html=1;rounded=0;" edge="1" parent="1">
          <mxGeometry width="50" height="50" relative="1" as="geometry">
            <mxPoint x="140" y="134.5" as="sourcePoint" />
            <mxPoint x="210" y="135" as="targetPoint" />
            <Array as="points" />
          </mxGeometry>
        </mxCell>
        <mxCell id="stcTqFC_c9L13YkCS5JH-4" value="" style="shape=image;verticalLabelPosition=bottom;labelBackgroundColor=default;verticalAlign=top;aspect=fixed;imageAspect=0;image=data:image/jpeg,/9j/4AAQSkZJRgABAQAAAQABAAD/2wCEAAkGBw0PDQ0NDw0QDQ8NDw8PDQ4QEg8ODw4OFhIWFxcRFRgYICggGBomGxcVLTEhJyktLi4vFyszPTMsPCgtLisBCgoKDg0OGxAQGi0lHyYtLS4vLS8wMi0tLS0tLS0tLSstLS0tLS0tLi0tKy0uLi0rLS0tLSsuLS0tKy0tLystLf/AABEIAOEA4QMBEQACEQEDEQH/xAAcAAACAwEBAQEAAAAAAAAAAAAAAQIGBwUEAwj/xAA+EAABAwIBBQwJBAIDAQAAAAABAAIDBBEFBhIhMVEHExciNUFUYXGBktEWMlNzdJGTsbIUI0KhYoIVNENS/8QAGgEBAQADAQEAAAAAAAAAAAAAAAEEBQYCA//EADYRAQABAgIGCAUFAQADAQAAAAABAgMEEQUVITFxkRI0QVFTgbHBE6HR4fAUMlJh8SJyorIl/9oADAMBAAIRAxEAPwDcUAgEAgEAgEAgEAgEAgEAgEAgEAgEAgEAgEAgEAgEAgEAgEAgEAgEAgEAgEAgEAgEAgEAgEAgEAgEAgEAgEAgEAgEAg+VTURxRulkcGMYM573aA0bSj1RRVXVFNMZzLl+leGdNh8QTJlavxPhzyHpVhnTYfEEyNX4nw55D0qwzpsPiTI1fifDnkfpThvTYfEhq/E+HPIelOG9Nh8SZGr8T4cj0pw3psPiQ1fifDkelGG9Nh8SGr8T4cn6UYb0yHxIavxPhyPSfDumQ+JDV+J8OR6T4d0yHxIavxPhyPSbDumReJDV+J8OT9JsO6ZF4kNX4nw5HpLh/TIvEhq/E+HI9JcP6XF4kNX4nw5P0kw/pcXiQ1fivDkekmH9Li8SGr8T4cj0jw/pcXiQ1fivDkekdB0uLxIavxXhyfpFQdLi8SGr8V4cj0ioOlxeJDV+K8OR6Q0HSovEhq/FeHI9IaDpUXiQ1fivDl7qSqimZvkTxIwkgObpFxrRj3bVdqro1xlL7I+YQCAQCDi5Z8mV3uHqwzNH9Zt8YYiFXapIGCgYKCQQMIJAoGEDCCQKKYKCQKBhQSCBgoGgkCgkCgaBqCQKqmEGk5C/9BnvJPyUcjpnrU8I9FhRqggEAgEHFyz5LrvcPSN7M0f1m3xhiAXp2pgoGgkCgYQSCBgoJAoGCgYQSCKYKCQQMFQMIJAoGgkCgkCgaBqCQKqtKyE/6DPeSfko5HTPWp4R6LCjVBAIBAIOLlpyXXe4erG9maP6zb4ww5V2qQQMIJIGCgYQSQMIJAoGEDBQSBRTBQSBQMFQNBIFBJAwUEgUDQNQaXkH/wBBnvJfyRyWmetTwj0WJGqCAQCAQcXLXkuu9w/7KxvZmj+tW+MMNBXp2pqCQQMFA0EgguGSGRpq2CpqHOip9OY0aHyga3XPqs/s9WglMtRpDSfwJ+HbjOr5R9Z9HcPoxGd4O8k6s79+UfVFx/am1g//AKlUdPb8o+X2eLKDImLeTVYe/fGBufvIdvoezbE7Wew3vzHmLNkYTStfT+FiIynv3c4UUFVvUggYQSBRTBQSQMFQSQMFA0EgUEgUDQaZkFyez3kv5KOS0z1qeEeixI1QQCAQCDiZa8l1/uH/AGVjezNH9at8YYYCvTtUgUDCgkEDBQfWmi3ySOO9t8exl9mc4C/9o811dGmau6M+TSN0ysMFJTUUX7cc2c1wboG8xBoEfYc5vhtzqQ53Q1v4l2q9XtmPWc9vyZsFXSLzuXYjIKiWkJJifG6VreZkjXNBI2XDtPYElpNN2KZtxd7YnLy+yvZVUrYcRq4mCzRLnAcwz2h9h1DORscDcm5hqKp7vTZ7OYCjKWXJ7JGWtg39k7IxnuZmua4m4tp0dqmbW4vSdGGudCaZnZm6fBzUdKi8D/NM2Lr23/CeZ8HVR0qLwP8ANMzXtv8AhPMzud1HSYiebivCZmvbf8J5qhUwPikfFIM18bi142EH7Kt1RXTXTFVO6UAVHtJAwUDQSBQSBQabkFyez3kv5KOS0z1qeEeixI1QQCAQCDiZbclV/wAO/wCysb2Zo/rVvjDC16doYKKkCgagkEEmPc0hzTZzSHNOxwNwfmiTETGUtVx2ibjOGwVFORvzOOxhIHGItJATzG4Gna0cxupucvhrs6PxNVFz9s7PpP56s4kwqra8xupZw8G2bvUhJ7LDT3KujpxFmY6UVxlxhoGQ2AOoWTV9ZaFxjIDXEXihFnOc/YTYaOYDrsJLQaTxkYmqmxZ27ec9mShYzX/qaqeotbfZC5oOsM1NB680BVv8PZ+Dapt90f783kBR9nspcSqYm5kVTNE2982OSRjb7bAo+Vdi1XOddMTP9xEvt/zdd02p+vN5o8/pLHh08o+h/wDN13Tan68vmh+kseHTyj6PdguU9VBURSyVE00QNpY3yPkBYdBIBOsax2daj4YnR9m7ammmmInsmIiNqw7oeEtc2PEYbOa4MbMW6Q5p9SX7DvGxIa7Q+JmmZw9fl7x781Fuq6BIFQSQMFA0EgUGnZA8ns95L+SjktM9anhHosaNUEAgEAg4eW/JVf8ADv8AsrG9maP61b4wwsFenaGgYKKkCgagkg6mBY9VUTy+B4AdbfI3DOjkttG3rFijGxOEtYinK5HCe2FuZunPzdNC0u2ichp7szQpk1M6CjPZc+X3dmlq2Y3hk8RAhmBs5oJLY5Ac6N3W02HyI5k3MSu3Vo7FU1Rtp9Y3THH7Mslicx7o3tLXscWvadbXA2I+arqaaoqiKo3SSKYQSBQNA7oNTyPjeMKtW5ggLXlm+GwFKRfj31DXbqIUcppGqJxmdjPpbN38v6/N7ynKTA2nem07SzUXNp2738iLn5I+36DSFX/c1bf/AC2/nm+OMZL0lVAavDi29id7Yf25ba2gH1HdWgcxA1o+mG0jesXPhYrnO+PrChI6JIIGCgaDUMgOT2e8l/JRyWmetTwj0WNGqCAQCAQcPLjkqv8Ah5PsrG9maP61b4wwkFenaJAoGgYRUgUDBQSCgYKDtZJ42aKrZKSd6f8At1Ddd4yfWttadPzHOjDx2FjEWZp7Y2xx+6z7pGBcZmIQNz2y5rZwwZ2m3El0a7iwPYNpUiWt0Pi9k2K+zd7x781HEEns3+FyredOnvg94k9m/wALkOnT3wHRPAuWOaNpaQEWKqZ2RJAor7UcQklijOqSSNjubQ5wB+6PNyqaaJqjsiZ5Qv8Aun1TmRUlO3ixyGR7gNAO95ga3s417dQUhz+g7cVV13J3xl888/RnwVdGuW5lVvFVNBfiSRGQjmD2uaA75OP9bFJaTTdumbNNfbE5eU5/RxcqoWx4hVsboG+51ut7Q8/24oz9H1zXhqJnu9Nns5YRmJIGCg1Dc/5PZ7yX8lHJaZ61PCPRZEaoIBAIBBw8uOSq/wCHk+ysb2Zo/rVvjDCAvTtDBQSBQNB08ncJfW1cVM24DjnSvH8IR6zvsB1kI+GKxEYe1NyfL+57PzuW7dPnpYxS0UUMYkhY0l4aM6GACzIgevXb/EbVIarQ1F2rpXqqpyn5z2yoSN6kEHswnD5Kqoipo/Wlda9rhjdbnnqAuUfK/eps25uVbo/MmqY3lDTYTHS0jY3SlsQDWBwBZE0ZrXOJ22PyKm9y+HwdzHVVXZnLbv75na5XCbH0N/1G+SZMrUVX845DhMj6G/6jfJMjUVX845OpgGV1PiEj6R8BjL43Wa9we2Vv8matdubZfYmTGxWjbmFpi7FWeU9nZ3SzvKPCXUVXJAblnrwuP8ojqPaNIPWFXR4PExiLUV9vbx/NrnNcQQQbEG4I1gjUUZOUdrUauGLGsOjfG9rJ4zex1RzW40bufNO3sPUo5a3XVo7EzFUZ0z847Jj+4+sKS/JbEmvzP0khN7XBYWnrzr2+aN5GkcLMZ9OPn6Lpk1g7MLp5qyre0SObxraRGy+iMf8A04m3eABtJpMbiqsdcps2Y2es9/8AUQz3EKx088s7tBle59teaCdDe4WHcq6Szai1bpojsjJ8bo+pgqCSDUdz7k5nvJfyUcjpjrU8I9FkRqwgEAgEHDy45Jr/AIeT7KxvZmj+tW+MMGC9u0SCgYKB3QarkfRx4VhcuI1AtJMwSFupwj/8oRfU5xI73WOpeZ2uax1yrGYmLFvdGzz7Z8vb+2aV1ZJPNLUSm8kzy955rnmHUBYDqC9Ojt26bdEUU7ofIFHs1Bpm5/h0dHRS4pUcUyRlzCRpZTDTcdbyAbc4DVJ7nOaUvVX70Ya32T8/t9VCxfEpKqolqZPWldcN1hjBoawdgt9+dVvbFmmzbi3T2fPvl5UfYwUH2pKmSGSOaN2bJE4PYdjht2jaNiPNdFNymaKt0tLyipmYrhkdZA396Jpka0aXaNEkPbo0bS0bVNzmsHcqwOKmzXunZ9J/O9mIKrp3twzEp6aTfYJXRO1G1iHDY4HQR2o+V6xbvU9G5GcLM3dDrs2xipy7mdmyAd4zlMmsnQmHz31ZeX0WCbNxnCg5oAqIzfNGgNqWjS3qa4HR1OGxNzXU56OxmU/tn/5n6ezM9INiCCNBB0EHYVXUmEVJAwVBqW59ycz3kv5KOR0x1qeEeiyo1YQCAQCDh5cck1/w8n2VjezNH9at8YYKCvbtDBQSBUFlyCwH9dWjPbeCntJPfU7TxI+8g9zSky1+ksV+ns7P3Tsj3ny9XW3UMf36oFFG79qmN5SNT6i2r/UH5uOxSGNofC/Dt/Fq31buH39OKkKtyYRXbyRwQ11YyEg7039yocLi0QPq32uNh3k8ym5h47Ffp7M19u6OP2WfdPxsFzMNiIDIs19QG2AzrXZF3Cxt1t2JDXaGwsxE4irfOyPefbmoQRvTBQSCBgoLhucY5vFSaWR1oqojNvqZUah4hYdoCS1Gl8J8W18SnfT6fbfzebLvBP0lWXsFoanOkj2Mffjs+ZuOo25kh9dF4v49nKf3U7J9p/PdXAUbJIFBYsiMb/SVYDzaGotHLfU11+LJ3E2PU47FGu0nhPj2c4/dTtj3j87Xv3Q8F3moFUwftVJOfbU2fWfENPaCkPhofF/Et/Cq307uH2+ipBVuTCCQQanue8nM95L+S8uR0x1qeEeiyo1YQCAQCDh5c8k4h8PJ9lY3szR/WbfGGBr27RIFAwUFw3NceFLWby82hrM2Mk/wmF8x3YbkHtGxeZhq9K4X41np076dvl2/Xmluk4D+lrP1DG2grC54tqZPre3v1jtOxINFYr41roT+6n07PpyVIFVtDQWPIXHRRVrS82gntFOTqbp4sncdfUSkwwNJYX9RZyj90bY948/XJ1907At5qBWxj9upObLbUycDX2OA+bTtUhi6HxXTt/Bq307uH29OCko3SSBgoJILPkBgn6qrEjxeGlLZH7HSXuxnzFz1C3OktZpTFfAs9GP3VbPLtn2/x6d0XGxUVQp2G8VIXNJH8p9TvDq7bpDxojC/CtfEq31enZz38lTCNsYQdvJLBjW1bIyP2o/3Kg/4A+p2uOjsueZGFj8V+mszVG+dkce/y+jv7pOMh0jKGO2bCQ+a3tLcVncDf/YbFIYGhsL0aZv1b52Rw7Z81JCreJBFMFBqm55ycz3kv5LzLkdMdanhHosyNWEAgEAg4WXPJOIfDyfZWN7M0f1m3xhgYK9u0NBIFA0GuYLUMxvB5KaVw/UwgMc86S2UD9ufsNtO3jBeN0uYv0zgMXFyiP8AmfTtjy+kq1R7mmIvaHSPggJHqFzpHA7Dmi3yJVzbC5prD0zlTEz8nLx3JCvommSWNskQ9aaEl7Gj/IEAt7bW61c2VhtIWL89Gmcp7p9nCRnNTyPrY8UwyXDqg3khYIy46XGP/wApRfW5pA72gnWpOxzOOt1YPExft7p2+fbHCff+mbV1JJTzS08otJC8seOa41EdRFiOoquitXKblEV07pfEKPokEE4mOe5rGNLnvcGsaNbnE2DR2lVJmKYzndDUq6RuC4Q2JhH6mW7Q4fyqHDjSdjRqvsaOded7mLcTpDF9Kr9sekbo8/rLLr9/WdJKrqDCCSDUMPjbg2FOmkANRLZxaf5TuHEi7GjX2OKm9y92qdIYuKKf2x6ds+f0hmkkrnuc97i573Fz3HW5xNyT3qunppimIiN0EEUwgkEVqu53yaz3kv5LzLkdMdanhHosyNWEAgEAg4WXPJOIfDyfZWN7MwHWbfGGAhe3aJAoGgkCg1XImnhw3CZMUmBL52CQ7d6vaKNvW4kH/bqXmds5Obx9deKxUYejdE5efbPl7KfiOW2JzyF4qXQNvxYobMawbL63d5+SuUNra0bhrdOXRz/uVoyEy1mmmbQ1rhNvwLYpiGhxda+9vA0EEXsba9Gm+iTDXaR0bRbo+NZ2Zb494VjLjBW0Ve+OMWhlaJoRzMa4kFg7HA9xCsNlo7EzfsRVVvjZP1/O14cncXfRVcVS25DTmysH/pCfWb2846wEffFYeMRam3Pl/U9n53NKysyTbiZgrKWaNhfGM57s4sliIuxwtzi57j1Lznk57BaQnCRVauRO/lPa4HBlWdJg+UnkmbO15a/jPyPgzrOkwfKTyTM15a/jPydvJPIZ1JUipnljlMbTvLWB1g86C832C9u3qCZsPHaVi/a+HRExnv4dyo5f1802IytkaY20/wC1Ew8zNBz/APbQeyw5lYbbRdmi3h4mmc89sz7eXrmrwRsTBQdLJ6rggq4ZqhjpI43Z2a2xIePVdY6wDpt1dxMfF27lyzVRbnKZ/J5uplvlAK2oaInE08ItFoLc95AznkHTsAvs60hi6Nwc4e3/ANfunf8A13R7/wCK6EbJIFAwgYKDV9zrk1nvJfyXmXJaY61PCPRZkasIBAIBBwsueScQ+Hk+ysb2XgOs2+MMAXt2hhFSBQNBrNbC6ryWgEPHdFT05LRpJMBaJG9vEdo6l57XNW6os6Sma+2Z/wDbd6spBXp0ru5FUT58To2sB/alZPIR/GONwcSeokAf7KSw8fdi3hq5ntjLznZ93f3W6lrq6CIaTDBd/UXvNh22bf8A2UhhaEomLNVU9s+n+qQCq3Lo0eO10LBHFVzRxtvmsa85rb7BzJk+FeFsXKulVREzwff0nxLp0/jKmUPH6HDeHCQynxLp0/jKZH6HDeHD0UGV2IRTRyuqZZmscC+J7rtkbzt+V9PMdKZPFzR2HrommKYiZ7e5b90DDI6ukixWn42ZGC8jW+mOnOPWwk9gJ2KR3NVoq/VYuzhrnbPz+/0ZsCq6NJAwUDCCSBgoJAoGEGr7nPJrPeS/kvMuS0x1qeEeizo1YQCAQCDhZdck4h8PJ9lY3svAdZo4w/P4K9u0NA0VIFBbshMsTh7nQyh0lLK7OIbpfC/UXtHODouOq45wZMZtZpDR8YmOlTsqj5/19PzK3TYLk3XONRHURxl/GeIphCbnndG71D3Bec5hrKcTpDDx0KqZnjGfz7ecusyKjwzDZ6rD4GztawyFzHiQyhpsXOkuSWt4xNtVjYJvY01XsXiKbd+rLbltjLLy/tjVdWSVE0k8rs+SVxe92rTsGwAWAGwL06y3bpt0RRTuh8QUe0gUDQMFFSBQaBuYY4AX4bKQWS5z6fOtbO1vi7xc+LapLRaZwszEYijfG/2n25PjW7nFWaiYQPhbBnEwmR7w7MOnNsGnVqvz2umb3b01a+HHTiel25R943uTi+RuIUrDI6Ns0bdLnwOMmaNpBAdbrtYJmy7Gk8PenoxOU/3s+zgAoz0gUDCCQQMFBIFBrG5zyaz3s35leZclpjrU8I9FnRqwgEAgEHCy65JxD4eT7JDLwHWaOMPz6vo7VIFENA0VIFA0GiblGPBr34bKQWTZz6e+kB9uPH2EabbQdq81Q0emcLnEX6d8bJ9p9uStZaYH/wAfWviAtDJ+5TE6t7J9S+1p0dljzqxtbDAYn9TZirtjZPHv8/q4YkbtCuTNylIPG0JkZSkHjahlKSiGEVou5rhUMcE2Kz2tHvgic7SI42D9yXt1jqDTtUnuaDS+IrqrjDW+3LP+5ndHv/jj4xl5XzyEwyGlhucyNgbnlvMXuIOnqGjt1pkzMPomxbpyrjpT39nl93SyRy6qBPHT1j9+jlcGNlIa18b3Gzb2sC29usXvdJhjY7RVvoTXZjKY25dk/d4t0XBGUtUyWJobFVBzswDQyVpGcBsBzgbdqQ++icVN61NNW+n07PzgqqNqYKBhBJAwUGs7nHJrPezfmVJclpjrU8I9FoUasIBAIBBwsuuScQ+Hk+yQy8B1mjjD8+L6O0MIqQKIaBoqQKD6QTPjeyRjix8bmvY4a2vabhw7wiVUxVE0zulp1PurRZjd8opM+wz8x7Mwu57X02Xnoueq0HVnPRrjLzfThVp+hT+KLzTopqK5/OPmY3VKfoU/ii806Kaiufzj5udlFugw1dHPStpZY3TNDQ5zmEDjA6bdiZMjC6Jrs3abk1ROXFQgVW8NBqOS0Zqcm5qaLTKGVcWbtkL3Pa3vD2/NSd7m8ZV8LSMXKt3/ADPllEezMR8toOgg7Cq6V6sNpHzzwwRgl8sjWttzadLuwC57Ao+d25Tbt1V1boj85r/ut1Dc2ii/kXSydjQA3+yf6UhodBUTnXV2bIZ0Cq6JJAwUDBQSCDWtzfkxnvZvzKkuS0x1qeEei0KNWEAgEAg4WXXJOIfDyfZIZeA6zRxh+ewV9HaGgYRUgUQ0DRUgUDQSBQMIJBQMIJAoLDkblM/D5nEtMkEthNGPWFtT2X0Zw/sd1kxmwcfgoxVHdVG6faV3qcKwHFHGdlQ2KV/GkMUjIZCdr43g2PXm3O1edsNPRiMdg46FVOcRuzjOPKY+pxTYHg7Xvje2aoLc3ivE9Q7/AB0aIwbdQ0JtlJpxuOmIqjKnlH3+bOscxaWsqX1MtgXWa1g0tjjF81g22udPOSSq6HDYenD24t0/7Pe8SPuYQSQMFAwUGt7m3JkfvZvzKk73JaY61PCPRaVGrCAQCAQcHLvknEPh5PsjLwHWaOMPz0Cvq7RIFQNAwipAohoGEVIFA0EgUDCCQUDBQSBQFh2osSkEEgUDCgkgYKCSBgoNc3NeTI/ezfmVJclpjrU8I9FpUasIBAIBBwcu+ScQ+Hk+yMvA9Zo4w/PAX1dokCgkCoGgYRUgUQ0DCKkCgaCQKBgoJBQMFBIIGgYKKkCgYUEggYKBoNd3NOTI/ezfmVJ3uS0x1qeEei1KNWEAgEAg4OXfJGIfDyfZGXges0cYfncFfV2hgoJBBIFQNAwipAohoGEVIFA0EgUDBQSBUDBQSBQNAwipAoGoJBAwUGvbmnJkfvZvzKk73JaY61PCPRalGrCAQCAQebEqGOpglp5QTHM0seAS0lp6+ZHu3cqt1RXTvhVeDHB/ZS/WkVzlsNbYnvjlB8GWD+yl+tJ5pnJrfFd8coHBlg/spfrSeaZya3xXfHKBwZYR7KX60nmmcmt8V3xyg+DPCPZS/Wk80zk1viu+OUDgzwj2Uv1pPNM5Nb4rvjlA4NMI9lL9aTzTOTW+K745QfBphHs5frSeaZya3xXfHKBwa4R7OX60nmnSk1viu+OUDg1wn2cv1pPNOlK64xXfHKBwbYT7OX60nmnSk1xiu+OUHwbYT7OX60nmnSk1xiu+OUDg3wn2cv1pPNOlJrjFd8coHBvhPs5frSeadKTXGK745QfBxhXs5frSeadKTXGK745QODnCvZy/Wk806UmuMV3xyg+DrCvZy/Wk80zk1xiu+OUDg6wr2cv1pPNM5NcYrvjlB8HeFezl+rJ5pnJrjFd8coHB5hfs5fqyJnJrjFd8coPg9wv2cv1ZEzk1xiu+OUDg+wv2cv1XpnJrjFd8cod7B8LhpIRBCCIw5zgHOLjdxudJUYN+/Xfr6de97UfEIBAIBAIBAIBAIBAIBAIBAIBAIBAIBAIBAIBAIBAIBAIBAIBAIBAIBAIBAIBAIBAIBAIBAIBAIBAIBAIBAIBAIBAIBAIBAIBAIBAIBAIBAIBAIBAIBAIBAIBAIBAIBAIBAIBAIP/Z;" vertex="1" parent="1">
          <mxGeometry x="220" y="90" width="85" height="85" as="geometry" />
        </mxCell>
        <mxCell id="stcTqFC_c9L13YkCS5JH-6" value="Event Bridge" style="text;html=1;align=center;verticalAlign=middle;whiteSpace=wrap;rounded=0;" vertex="1" parent="1">
          <mxGeometry x="220" y="70" width="80" height="30" as="geometry" />
        </mxCell>
        <mxCell id="stcTqFC_c9L13YkCS5JH-7" value="" style="endArrow=classic;html=1;rounded=0;" edge="1" parent="1">
          <mxGeometry width="50" height="50" relative="1" as="geometry">
            <mxPoint x="320" y="134.5" as="sourcePoint" />
            <mxPoint x="380" y="135" as="targetPoint" />
          </mxGeometry>
        </mxCell>
        <mxCell id="stcTqFC_c9L13YkCS5JH-8" value="" style="shape=image;verticalLabelPosition=bottom;labelBackgroundColor=default;verticalAlign=top;aspect=fixed;imageAspect=0;image=data:image/png,iVBORw0KGgoAAAANSUhEUgAAAN4AAADjCAMAAADdXVr2AAAAflBMVEX////6fhT6dgD6cQD6egD6cwD6dwD6fAz6ewD7lE3928j6fAj92cX/+PT7kkn/9e/7nWD6hSr8wqH9yaz9zbP8uJD+7+b+5Nb7llL7j0P8u5X8vpv7oWf7pW7+6d38q3r8sYX91L36giD6iTP7p3L7mlv8s4j9zbL6izn7j0SXiTcQAAAI7ElEQVR4nN2d6ULrOgyEyR4oLfvOgbKU5f1f8AZOOTRtbM/YTiTf+Q1Fos4XS7bHe3u05tc3i2/tA1r86PNmdcn/LQE9VY2XymvpyCEd5pmfiiPp0BF5p1feSoeOyDu9ZiYdOiLv9LL8UDp2QP7ptSvp2AH5p5cEXALSq++kg3crIL2mkQ7erYD0svxAOnqnQtJrj6Wjd+ogIL0E4BKUnn64BKXXZNLhuxSUnn64hKXX3kvH71BYelkxl07ArsD0tMMlMD3tcAlML6t0wyU0PeVwCU1POVyC06tPpVOwKTi95lk6BZuC09MNl/D0yj/SOVgUnp5quERITzNcIqSnGS4R0suqK+ksjIqRnmK4xEhPMVyipKcXLlHSa06k0zDpochNquu8BvNTDBebzsDvtnyVjtRPJw349amFi1UXJZZefSYdqZeuKiw9vXCxC/z2UoXLI5hfonCB34uVdKR+QtNLFC6v4OhsXqQj9RK8fJsoXMBXQ1Y+SkfqpT/wu0E6Ui89/c/hgo7OROFy3KKjM0m4nKNVX5pwmRdgeonC5XoGple/S4fqozN0dDYf0qH66AgfnQ/SsfroBh2dacLlFB2dacLlEh6dacLlBWyYZbMk4XIHj84iRbg8oPPOrFxKx+qjZ3R0Zrl0qD5C27kdXM6lY/UQ2s7t4HIjHauP0KIoUbgs4dGZJFyIZc4k4UKklyJc0HZuonCBG2aJwgV+NaQJF7hhliZc4JZEmnC5g9mSzT6lg+XVwrPqDi5pWC5sCF2F/lZycLmC+xHfqqXjJYXu31krf5IOmNIFjs1vzRbSETN64IZmlhhcXtA+7j+Vb9Ix47rz2PSZDlzwLu6G0oHLJz00s4Tggu5Z3VIicJnjlVBPicBlxczGNpUEXJ48v7xE4EJOVzY025eO3S14y9WA9MPlwOeV96PyQjp8lzKuUNjOTzp8h5b+T96XlMOFLxT6mun2SSRr2F2phstt2NDMdMPFq1DYzk86CbPgvUgW6YWLZ6HQV6sVLkfec82etFqZXeMrJjYphct5nC8va1rpTIY0D34n/EilCet9QKHQl0YT1qBCYUsK4cIsdrmkz+GZWuxySR1cyMUul7TBBd/dCEkZXNjFLqdUwSW0ht1VrQku/GKXS5rs409jFApb0gMX/EANIT1wWcQpFLakBS7vIwzNTI0J63yc7LSYsJKLXThjVTg8k4tdJV7Rq7CP57678nqvgadvCuCCb5f+Vj0njk7Jw4WsYYtD5i0pDxduseuvMeAKfvqk4cItdq2LVPy2CmG4kIVCsf4y8MdV1ieRW+yqf444EyffJOHCLXb9ggJfRpKEC7nYVfx6e+zDUxdBh+cPqoatl7+/iR++kbOP52rYvtcvPqql4ELWsP0jUG84XIRMWPepGrbur2kRcJFxeH6nCoXZtiXSQjdcyBp2ZzOHcrgcU4VCvvt2Vg0XroYdOjmqGi4lNRsbKks1w4WrYfPBfz++A2ZquHA1bDu8e/8chsvU9vFcDVsZOibEqehJ4cLVsJXJKgi3XJgULlwNa95BhX/OpHDhatjcPLAIuEznk8jVsJVldx9skzghXLgatrT2ghTChaxhrZ+F7xWZCi5cDVvYV1hxL6yJ7OO5Gtb5yHzAlJoGLlQN695a9I7DZQr7eK6GLdxzRfzzJoALV8PWgDElAZfxHZ6pGhbqwOJWZuPDhathCwgGsA3k+HChatjNrq1FuF/N2HChalh4FoyPiHFNWLkaFjau0gIXqoat4ZMISuBC1bA7XVuL8PpqRLhwNSxzBE8FXKgadqBraxbuHj8eXKgalnQqxok8Fly4GpY8HUrAZaS7KahDh8NdW4uk4ULVsIaure3jcbiMYR/PHTo0dW3NEoYLVcMau7YW4R4TI8CFOnTode5VEi5cDWvp2lqEn9CJDheqhrV1bS2Sg8shMzTtXVuz5ODC1bC+/Z57mF5x4ULVsI6urUUHMnChDh2GLHTg1aTz4puD5TL+Xw08EIrvH7fCZX5+X+Ul1sXa23tjCgWga2sW0d03Ojxfni6K+ushBl0LqBo2ENm4g/Xw3RRXFydFvZ75g30svAkZvm8Wd/8f2AR0+FhWm4iHLqaiHDbR8W4UcTilF/z8/Lh73Po/gWzBpmpYsGtrEd4Q2HB4vjz9/Pu49YW8PZgaNsLeBR4uV2/PVT0cpLthQBnnxLhuAD+c8nWr1tNrnZtnVM7FasphE+/aWoQfTsnqm53HrS/n7RWMcQ7TtbVohoPa+ZOOs3HUYlck47TbiKYajpk3M12hurYWxTwfbvf5ZIxz4t0vh8PFLdtaPLXYFc/Tj7gZxinbnYXEQ853bS2K+PBZTAsY4xy+a2sRfvLNLePopGpYvmtrUQwDxR8ZL71jjHN8urYWwXcNu2U6mMoY55SR3QpjwqUY/AvUAPHr2loU0ZNo2AeT2bDp2bW1CD+c4tRgZ4tZ7PLt2loUEy4DHV9qYjSGyyt+8s2pATsixjjHv2trUUS47Da3GOOckfZhxITL1kczi11jOW3hh1Pc6W11XpnFrqCurUUR4bI1OpkaFtlr66cY3s8/+fU+mFjsGvFYD37yzaneWi6z2BXctbUoIjs3bo5hath6zBtn4sFlE3/EYte4+7aj2UWW+W/DjNmwOfIlsdw5JWNu+evvlJj5l+Uje2fih1MMasqqXfZeXMSGzXitMZOC3Mmbunq+2CIfs2Fz/Osu/F2SZ3Xxcrfz6DBThZitMYPwk289tXWxOBv63xMzhXaK62+ZdeG1OkyuzoebB8xiV9TWmEnEZcrr3PI/xs7BUVG27exLzVqW7OK2xkwiRmeHyfLRNr8/O74/Xq2u9xeLm4+Xk5Pn56xpyzqvqmKt6p+Kic4goxPELrfsLXSCOP/SUafLqSwloS2eHSZPblO8hh54D3eYvDnVfCOTVfYtnl1uqzN5c1J/WbZ4lnl1r/aqIlTD+8ebMq8f1fiNB2gALh0mZ0sNdscxtLVQNTRTTlmbcOleAR/pYnJQ/+DSYXI/aUwO63v/eGueKSeug6J7BZhnysnrMQIm/wPOg4yWI61VjQAAAABJRU5ErkJggg==;" vertex="1" parent="1">
          <mxGeometry x="400" y="105" width="68.45" height="70" as="geometry" />
        </mxCell>
        <mxCell id="stcTqFC_c9L13YkCS5JH-9" value="Lambda" style="text;html=1;align=center;verticalAlign=middle;whiteSpace=wrap;rounded=0;" vertex="1" parent="1">
          <mxGeometry x="403.45" y="70" width="61.55" height="30" as="geometry" />
        </mxCell>
        <mxCell id="stcTqFC_c9L13YkCS5JH-10" value="" style="shape=image;verticalLabelPosition=bottom;labelBackgroundColor=default;verticalAlign=top;aspect=fixed;imageAspect=0;image=data:image/jpeg,/9j/4AAQSkZJRgABAQAAAQABAAD/2wCEAAkGBxAQEBIPDhIQDRANFRgYDg0QEBYSFg0QGBUXGhYVExUYHSggGholGxUVIjMhJSk3Li4uFx8zODMsNygtLisBCgoKDg0OGxAQGy8mHSYvLS0tLS0rLS8tLS0tLS0rLS0tLS0tLS0rLSstLSstLS0rLSsvLS0rLS0tLS0tKystLf/AABEIAOEA4QMBEQACEQEDEQH/xAAcAAEAAgMBAQEAAAAAAAAAAAABAAUEBgcDAgj/xABKEAABAwIBBwcGDAQFBAMAAAABAAIDBBEFBgcSITFBURMiMmFxgZEXUpOhsdEUM0JDVGJygpKissEjNVPhY3N0s8IWNNLwFSQl/8QAGgEBAQADAQEAAAAAAAAAAAAAAAECAwQFBv/EADYRAQACAQIDBAgGAgMAAwAAAAABAgMEEQUhMRITQVEyYXGBkaGx0RQVIlLB8OHxNEJyIyQz/9oADAMBAAIRAxEAPwDX19u88ohQKCIFEKBQKoiiFAoFUKIiBQKBRCgUEQKIUCgUEVCEQoIgqVi3ogUQoFBECiFAoFURRCgUCqFERAoFAohQKCIFEKBQKCKhCIUFQsW8oIgUQoFBECiFAoFURRCgUCqFERAoFAohQKCIFEKBQKCKhQVCxbyiFBECiFAoIgUQoFAqiKIUCgVQoiIFAoFEKBQRAohQKBQRBUKN5QKIUEQKIUCgiD3p6WSTVFHJKeEbHP8AYFja9a+lMR7ZIiZWtNkniEnRppR9sCP1PIK57a3T163j6/RnGO8+DPjyBxA/Nxt+1KP2utU8T08eM/Be5u9PJ7iHCH0v9lj+a6f1/A7i7zkyCxAfNsd9mVv72WUcT08+PyJwXYVRkrXx9KmlP2AJPUwkrbXW6e3S8fT6sZxXjwVk9NJHqkY+M8Hsc32hdNb1t6M7sJiY6vNZIURECgUCiFAoIgUQoFAoKdRvKBQKIUEQfTQSQACSdQA1kncAERuuAZu6iYB9U4UsZ1hnSkcOsbG9+vqXl6jiuOnLHzn5f5b64Znq3ahyPw6lGm6Nji3bLUO0rddnc0dwXlZNdqMs7RPuj+7t0Y6VNVljh1ONESsNvkQtLv0iyU0Gpyc+z8SctIU8+c6mHxcE7+t2gwHwcV014Pk8bR82E6iPJhyZ0D8mm7NKX3NW2ODed/kx/Eep5+U+T6Mz0h9yy/J6/v8Akn4ifJ6x5z/Opvwy+9qxng3lf5L+I9TNp85lMfjIZ2dbdB4H5gfUtVuD5Y6Wj5rGor5LaHLDDZm86VgG9szC39QsVzW0GppPKvwZxlpPip8TpcBnueVhheflwv0NfW3onwXVivr8fhMx64/ssLRilpWNYVDDzqeqhqo9wDrSN7W7D2g9y9bBnvflek1n5Oe9YjpO6pXU1ogUCgUQoFBECiFAoKdRvKBQKBRCg6xm3yZZDC2smAdNMLxX+ZjI1W+sRv4G3FfPcS1c3vOKvSOvrl1YqbRvLEypziaDnQ0Aa8tJD6l4u0Eav4bd/adXatml4X2o7WX4fdjfN4Vc+xDEZqh2nUSPmO7TNw37I2DuXs48VMcbUjZzzMz1Yy2IiBRCgUHtS075XtijGk+QhrG8SVL3ilZtbpBEbztDemZsZbC9QwHeBGSAfFePPGK/s+bo/Dz5nyZSfSWejPvT84r+z5n4efM+TKT6Sz0Z96fnNf2fM/Dz5p5M5PpDPRn3p+c1/Z8z8PPmnkzk+kM9Gfen5zX9nzT8NPmoMqMmZKAs03tlZLfRc0WsRa4IPau7Sa2uo32jaYa8mKaKJdjUUCiFAoIgUQoKhYuhFUKBQKCHYiO/MpTJQCGM6DpKcNY7zSY7Ar5CbxXP2p8/5d229dnCq2jkgkdFM0xvjNnNIt3jiOB3r62l65Kxas7xLimNuUvFZMSgUEQKIUG/ZrMF05HVjxzYrshuNrz0ndw1feK8fi2o2rGKPHnPsdGCnPtLHLbLOamqBT0vJ/w23mc5ulzzsaNeqw1/e6lp0HD6Zcfbyb8+jLLlms7Q17yhYhxh9F/ddv5Vp/X8Wrv7p5Qq/jD6L+6flWn9fxO/ufKFX8YfRf3T8q0/r+J3923ZBY5V1pmfUFnJxaLWaLNHSebk677hb8S83iOmw4OzFOs+vwbsN7X33a1nPxHlKpsAOqmbzv8AMfY/p0fFd/CcPZxTefH6Q1ai29tmmr1XOUCgUQoFBECiKhYugoIqhQKCHYkD9BRVjYKJs0l9CGBrn2FzotYCbBfHzScmaaR1mdvm7d9q7sSsw+gxWIPOhO35E0brPjPC41jsPgtlMufSX26eqeiTFbw0rFs2UzSXUkrJW/05eY4djgCD32XqYeL0nlkjb2NNsE+DV67Jqtg+Mp5bD5TW6Y8W3XoY9Xhv6No+jVNLR4KkmxsdRG0bwuhgboFB7UlO6WRkTBd8rg1g+sTYLG9opWbT0giN52dtPJYXQfVpmekkP7ucfWvlf1avUeuZ+Ef4h3cqVcTqKh8j3SSHSfIS57uLjtX1daxWIrXpDgmd+b4WQiiFB2fIykFLh8bn83SYZZSd2kNLX2Nt4L5bXXnNqJiPPaHdijs0cjxKsM80kztszy7sBOoeFl9NixxjpFI8HFad53Y62MUQKBQKIUCgiCoBWLeUCgiqFBDsSB3TGv5RL/oz/tL5TB/y6/8Ar+XXb0J9jjmCPqhKPgXK8twhuSQOIG0dq+lzximn/wAu23rctd9+TcKXOHW07uSrYWyOZ0gQYZB1naD4BedbheHJHaxW/mG2M1o5TDYKPOVRP+NE0B62aYH4bn1LjvwnPHo7T/fWzjNVZtynwucDSnp3DcJho7eqQBaJ0eqx9Kz7v8Mu8pPi+vg2FSaw2idfhye/sU7eqr+75rtSfJS5XxYbS0r3xQ0zpn82ENDTZx+UbcBc9wXVo7anLliLWnbrLXkila8oVOarBdKR9Y8c2Lmw33vI557hYfePBdPFtRtWMUePOf4YYK8+0M6eNacraNhu2Czprf1COaO5pv8AeV4Tp+zWcs+PKPYZ7bz2Whr13OUCqLDAKD4RVQwbRI8aX2BznflBWjUZO6xWv5QypXtWiHV8vJnsoXxwse909ow1jS6zD0tm7RBHevnOH1rOeLWnpzdeWf07Q5N/8XU/0JvRO9y+l7/H+6Pi4+zbyD8OnaC50MrWja4xuAA6zZWM2OZ2i0fFOzPkxlsYogUCgUQoIgqFi3kFAoFBFUJQd3pGtrcLDGOH/wBin0NLzXFmib9huvk7TODU7z4W3+bsj9VWiZA4jHhtTUwV4NO94YA9zTZpYX3F7bHaQIOw2Xra/FbU462xc45/Pb6NOOYrMxLCzjY1BV1DDTHTbEzRdKBYSEm+q+sgfutvDdPfDjnt+Pgxy2i08mqL0WpEEsiPejpXSyMijF3yuDWjiSVje8UrNrdIWI3naHbnGLC8P3EU0ercZpfe5x9a+V/Vq9R7Z+Ef4h28qVcSqqh8r3SyHSfI4uceJJuV9VSsVrFY6Q4Znfm81khQKC9yMxeOjq2zTNLmaLmktFzHe3OA37LdhK5NdgtmxdivXqzxWitt5dD8oWH+fL6Jy8T8q1HlHxdPf0WOC5TU9Y8sp+Vdoi7nGJzWt4XcdVzwWjPo8mCN77fFnXJFujJx3FoaSF0s5FtjY98rvNA3rDT4L5r9mn+lvaKxvLhb3XJNrXJNuHUvsIjaHnBVEQKBQKIiCoWLoKIQUCgUEVR1jNLT1LYHve61M938GMjXpjpPadzd1uIPf8/xa2ObxEel4unDE7eps+N4DSVwLZ2h7o9QkYbPiJsbXHdqOpcGDU5cE70nr8JbLVi3VoOLZsZ2kmklZM3zJOY8dhFwfUvYw8XpP/6Rt7Ocf34tFsM+DV67Jytg+Np5gB8prC8eLbrvx6rDf0bQ1TS0eCq0he28bRwXQxIKDYsg6+CnrWS1J0WBrgyQi4jkIsHHqtpD7y4tfjyZME1p15e+GeKYi28upPyqw1ws6pgcOBcCvAjR6mOlJdXeU83x/wBR4X/XpfV7lfwuq/bKdunmspYad8Je5kb4nM0idAWcy17+C0RbJF9omd92XLZwJ5Fzo6m3Oj1C+pfZRvtzcARCgs8n8FlrZhDELAWMsh2RMvtPXtsN60ajUUwU7Vvd62VKTadodcY2lwmk8yNm07XzSH2uNtm624BfNTOXWZfX8oh2fpx1cmygx2WtlMsps0ao4hsjbwHE8SvpNNpqYKdmvvnzcd7zad5Vi6GBVCiIgUCgURULF0IgUQgoFBCqjv1Mx8WHNFOLyR0w5Jo3v5O49a+RtMX1E9vpNufxdvSvJw+kxOohldNFLJHK4kyPDjd7r3Onx1k7V9TfFjvXs2jeP70ccTMTvDcMLznVLLCpjjqB57bxv79oPgF52XhOO3OkzHzhtjNPi2ajzlUL/jOWgO/SjLwPwXPqXDfhWePR2n3/AHbIzVWTcpcLnHOnpn8BMA0+EgC0fhNVj6Vn3f4Zduk+Kjy4iw80Mr6cUvKDR0XRaGl023to9V116Gc/fxF99ufXfyYZOz2eTla+gcpRGZhFCaieKAX/AIzw0kbmk849wutebJ3eOb+S1jednXc4Nb8Hw+RrLNM2jEwDcCedb7gd6l83w7H3moiZ8Of997ryztVxhfUOMoixwPCJayZsMI1npvPRibvc7/3WtOfPTDTt2/2yrWbTtDsFJTUuE0hudFjBeSQ9KaTs3k7gvmb3y6zN65+UOyIrjq5RlLlBLXS6b+axlxDENkbevi47yvo9Lpa6em0dfGXJe83lULpaygUCqFERAoFBULFvKCIFEIKCO2FWB+jMOeG00TnENa2JhLibADRGslfGZImckxHnLtjo1jKrICGrJmp3CmmdrdzbsmJ3uA2E8R4Fd+l4lfFHZvzj5w13xRPOHOMXyTraUnlIXvYPnYgZG95brHeAvaw6zDl9G3Pynk0WpaFL1bxuXUwKCBEfSCIN2zU4fylW+Yjm07DY/wCI82H5Q/1Ly+LZezhinjM/KP7Dbgj9W7LztYhpTQ0wOqJum/7TiQ0doDT+Ja+EYtqWyefJlntz2aCvYc7NwfC5auZsEA0nO2k7GN3ucdwWrNmrhp27dFrWbTtDseGYfTYVSkucGtbrmncLGV+we4N618zly5dXl5R7I8v74y7KxGOrlmVWUklfLpO5kUd+Riv0R5zuLj6ti+g0mkrp67R1nrP98HLkvN5Uq62sqiKIUCgVQoiIFBULFvKBQRAoiHYVYHd8b/k83+jP+0vlMH/Lr/6/l129D3OX4BlvWUlmafLwjZDLr0R9V20ezqXu59Bhzc9tp84c9ckw3vC85lHJYTtkpnbyRpsv1Obr8QF5WXhWavo7T9W6M1Z6rn/8ut+iVJOzoF3dvXN/9nB+6Piy/TZh1GbzDXbInxE+ZM/2OJC214nqI8d/dCd1VgyZsaM9GSdv3mn/AIrbHF83jEMe5q8vJfTf15/ye5ZfnGT9sJ3ENWy7ydp6DkWQuke+bSLtMizWNsBqA3kn8JXoaDVZNR2ptEbQ15KRXo3bNdQcnQiUizql7nfdB0W/pJ715XFcnaz9ny/23YY2q5nlPiPwmsnmBu1zyGH6jea23cL9693S4u6w1q5r23tMsbC8PlqZWwQN0nv2cGje5x3ALZly1xUm9ujGsTM7Q7NgeEU+F0xLnNBA0qiodq0z7twH7lfMZ8+TV5do90OytYpDmGV2U8lfJqvHBH8VCf1vt8r2eN/f0ejrp6+dp6y5smSbz6lAuxqKBQKoiiFAoFUKIiCoWLoKIUCgiCFVHeqyIz4S5kQ0nTUlmAbyYtQXydJimqibeFv5dc86NCzUUFNLPP8ACGskkjazkY5BfaX8odE7SLM7Lr1+K5MlKV7E8p3329238tOGImebHzoUVNDVsFOGMc9l542ag11+abDUCRfwWXDMmS+Ke358kyxETyacQDtXptTJpq+aLVFLLEBujkc0eAKwtjpb0oifbC7zHRYRZUV7dlVP3vv7VpnSYJ/6Qvbt5vb/AKwxH6VL+X3LH8Dp/wBkL3lvNg1FXPVysEsj5pHlrGFxuec6wA7yt1aY8NZ7MbR1YzM2nm7NjswocNfoauRiEcf2iAxtu8r5jBWc+pjfxnefq67T2auK4bQSTyMggaXyP1NaPWSdwHFfU5clcdZvaeTjiJmdodnycwODC6dz3ubp6OlU1B6hew4NG4L5jU6i+qyREdPCHXSkUhzbLTKp1dJosuymiP8ADYdRefPf17bDcvc0WijBXefSnr9nNkydqfUz8OyQLKGorasFjhC808J1WJadF7+u51Basmu7WeuLH5xvP8fdlGPas2lpq9NpKIUCgVRFEKBQKoUFOsW8oFEKBQRB13NNi00sD6eRjjHTG0c+6x18mesbewjv+f4rhpW8Xiec9Y/l0YpmY2ZWVGQUVS8z0r/glQSS4gHQlcd5tra7rHgVr0vEbY47GSO1X6FscTzhzbGcl66mcTNDI8b5mAytPWXDZ32Xt4dXhyR+m0ezo0WpaOqlXSxRVCgUG05uMO5evjJF204Mh1bxqb+Yg9y4OJZexgmI8eTZijezbs6UskvwahgaZJJnl5Y3aQ0EC/VdxOvzV53CorTtZbcoiNmzNvO1YXGS2TsOGwGSQs5UtvPUO1BjRrLWk7Gj1rm1Wqvqb7V6eEf3xZ0pFIc9y3ytdWv5KIuZTRnmtvblz57hw4Dv27PZ0OijBXtW9Kfl6mjJk7XKOi/yByK6NXWN64Kd42cHvB38B3rj4hxDrixT7Z/iGeLF4y9s6+KytYylaxzYprOfNukLTqjHYQCb9SnCcNJmckzzjw/kz2no5mvdcyIFEKBQKoiiFAoFUVCxb0QKBRCghKo73gsbKHDGOa24hg5R4G17y3Sd33XyeaZz6mYnxnb+HVH6aua0GcavZK6R5ZPHIb8g5oAjHCNw1jVYa77OOte3fhmC1YiOUx4/dpjLbdumFZzKKWwmElK7eXN02X6nN1+IC8zLwrNX0dp+rZGWJ6rjksLrt1JUk7LaBd3b1z76nB5x8WX6bMGozd4a7oxPiv5kz/Y4kLbXieojrO/uhO6qwpM2FGejJO37zT/xW2OL5vGIY9zDXMs8jKegpuWZLK97ntaxjtGxvrJ1DgCu3R6/JnydmYjZhfHFY3XmaHDtGCapO2dwaz7DL38XOP4QuXi+Xe9aeXP4ssMct25fAYmTPq325QsDeUcdUUTdZA4C9yT2cAvM7y9qRjjpv8Zbdo33cqy6ywNY4wU5LaVm3cahwPSP1dlh39n0Gg0MYY7d/S+jmyZO1yjoqMnq6mp38vPE+pkYbwQ6mxtcPlyEm5N9gtuXTqMeXJHYpO0eM+PuY1mI5ytp84dcZmygsZGw/wDbNHNe3eHOOsnr3cFz14Xgik18fNlOa2+7oGWtOypw2V5FtGPlYydrS0aXrFx3rx9FacWprHr2n6N+SN6OKL6lxFBECiFAoFURRCgUFQFHQURECgURHbCrA/SGGMDqaJrgCHRMBB3gsFwvjMk7ZJmPOXZHRzDKzNzNE50tADPESSYLjTh6m36TfX27V7ml4nS0dnLynz8J+zRfFMdGhyxuY4teCxzek1wII7QV60TExvDU+SAdouqjMpsSni1RTTRAbmSuaPAGy12xUt6VYn3LEzDPjyqxBuyqm73X9q1To8E9aQvbt5sfE8cqqkAVMz5gw3aHW1G20WCzxafHjneldkm0z1dxybohS0UETrNMUYMhvqDyLvN+FyV8tqcne5rWjxnl/DrrG1dnNsvcsjVONNTOtTNPPkGo1Dh/w9q9vQaHuo7y/pfT/LnyZN+UdGlL1Gp608L5HBkbXSPOxjAXE9wUtaKxvM7QbN+yTzevc5s1eNBg1imuC5/DlLagOrbxsvH1fFKxHZw9fP7N1MPjZvOV38vq/wDIk/QV5Wj/AORT2x9W7J6MuDL65wlAoIgUQoFAqiKIUFQo6CECiIgUEdsKsI79ik748JkkjcWPjpC5j27WuEVwR3r5PFWLaqKz0m38uqfRahk9nQsBHXxnVYfCIt/W+P8AceC9HUcJ8cU+6fu11y+bbhLheJgXNNVkDYdHlGDs6bV522p00+MfT7Nn6bKevzY0T7mJ01OdwDg9vg7X6104+LZq+lESxnFCkqM1Mo+Lqo38NOJzPY5y6q8Yp40n4/6YThnzYMmbKuHRdA777h7WrbHFsPjEp3Nnl5NcQvY8hbjyu38qy/NcHr+CdzZsk+T2NT04pZqiBsVgHG5LpGjc9wGse3fdcVdTo8eTvK1nds7N5jaZYVPmqf8AO1TW8QyEu8CXD2LbbjFf+tPn/hj3HrXtBm3oY9cnK1BHnv0R4NAXLk4rnt02j++tnGGsLOStwzDmloNNTHfHGG6b+stbzj2lc8Y9TqZ35z7en2Zb0q0/KHOW5wcyhYYx9IktpfdZsHafBenp+ExHPLO/qj7tVs3k2/HXk4TM4kkupHEk7STFrJXm4I21VYj938ttvQn2OHL6txFEKBQRAohQKBVEQVCxbygQgUREEOxUd7xkXweW2u9Gbdf8FfKYeWrj/wBfy6beg5lm9yXjxCSblnObHThl2s1OeX6Vte4DQPiF7ev1dtPWOzHOd/l/tpx07Tzy7ybZh9QxsT3OjmaXR6XSjINiCRt2jWstDqp1FJm0c4S9ezLAosp66HVFUzNA3F2mPB9wt19Jhv6VY/vsTtWjxXFLnIxJnSdDNxMkQBP4C0LmtwvTz0iY9k/fdYy2WMWdOqHSggd2FzfetM8IxeFpZd9L18q0/wBGi9K73LH8np++fgd9Pk8pM6VUejDA3tLnfuFnHCMXjaU76WBU5xcSf0XxQ/5cIP69Jba8L08dYmfbP22SctlPWZRVs2qWpmeOGnojwbYLpppcNPRrDCb2nxVn7+tdDFDsSB3PGv5RL/pD/tL5TB/y6/8Ar+XXb0J9jh6+rcaIFEKBQRAohQKCKioWLeUCgQgUREHa83GUEdXSCmkI5anboPjPzsVrNcOItqPZ1hfN8Q01sWXtx0nn73RjtvGynxHJSuw2Z9Vg7i+N99OnNnOY297Bp6bRrt8ode1dGPWYdRWMeo6+f96fRjNJrO9XP8dxKpqZi+sLjKBbRc3Q5McA3cvWwYseOm2Po1WmZnmwFuYogUQgoFAoIqj1p4XyODI2uke7YxoLie4LG1orG8ztBtu3/JLN5I5zZsQHJsbrFNcF0nDlLagOrb2LyNXxOsR2cPXz+zfTF42XWc7H2RU5o2OBmqANNo+bhvrvwva3iubhmmm+TvZ6R9WWW20bOSr6JylBECiFAoIgUQoIgqVHQiIUCgQgUR7UlTJE9ssT3RSMN2vabFpWNq1tHZtG8DpOT2dLUI6+M6rD4TFrv1vj3do8F42o4T44p90/durl823iXC8Tbtpasj5LtHlGdx5zV5+2p00+MfT7M/02VFfmxoZNcTpqc/VcHDwcD7V0Y+K5q+ltLGcUKOozTyj4qqY/qfCWW7w4+xdVeMV8afP/AAx7mfNgy5r60dGSnf8AecPa1bY4th8YlO5l5eTPEP8AA9If/FZfmuD1/BO6s94s19aelJTs+84+wLGeLYfCJO5ln02amT52qY3iGQl3rLh7Fqtxiv8A1p8/8L3PrXtBm1oY9cnK1BHnv0R4NAXLk4rnt02j++tnGGsLR9ZhmGt0QaalNvi2Bum/rLW849pXPGPU6md+c/T7Mt61aflBnNc68dAwsH0iS1/us2DtPgvS0/CYjnln3R92q2byc9mmc9xfI5z3uN3PcS4uPEk7V7MRFY2jo0PlUKIUEQKIUCgiBRCgqFHQUERCgUCECiIgWmxuNRGwjaEFxRZUV8OqKqmaBsDnaY8Hghc99Jgv6VY/vsXtWjxXVLnKxJmpzoZuuSIAn8BaPUue3C9PPSJj3/fdlGWywizq1Q6UEDuxzm+9aZ4Rj8LSvey9fKvP9Fi9K73LH8np++fgvfT5PKTOpVHowQN7S53uWUcIx+NpTvpYFTnHxJ/RfFD1xxAn8+kt1eF6eOsTPtn7bMZy2U9ZlJWzapamZwO4O0R4NsF000uGno1hjN7T4qvr47TxW9iiqFAoFAohQRAohQKCIFEVCjoKBQREKBQIQKIiBQKIUCgiBRCCgUCgiqFAoFAohQRAohQKCIKhRvKBQKCIhQKBCBREQKBRCgUEQKIQUCgUEVQoFAoFEKCIFEKBQU6joKIUCgUERCgUCECiIgUCiFAoIgUQgoFAoIqhQKBQKIUEQKIUFQo6EQKIUCgUERCgUCECiIgUCiFAoIgUQgoFAoIqhQKBQKIUEQKIqAo6CECiIgUCgUQoIgQgUQhAoIgUQoFBEQoPpBECqFERAoFAohQRB//Z;" vertex="1" parent="1">
          <mxGeometry x="560" y="100" width="70" height="70" as="geometry" />
        </mxCell>
        <mxCell id="stcTqFC_c9L13YkCS5JH-11" value="" style="endArrow=classic;html=1;rounded=0;" edge="1" parent="1">
          <mxGeometry width="50" height="50" relative="1" as="geometry">
            <mxPoint x="670" y="134.5" as="sourcePoint" />
            <mxPoint x="750" y="134.5" as="targetPoint" />
          </mxGeometry>
        </mxCell>
        <mxCell id="stcTqFC_c9L13YkCS5JH-12" value="" style="endArrow=classic;html=1;rounded=0;" edge="1" parent="1">
          <mxGeometry width="50" height="50" relative="1" as="geometry">
            <mxPoint x="480" y="134.5" as="sourcePoint" />
            <mxPoint x="550" y="134.5" as="targetPoint" />
            <Array as="points">
              <mxPoint x="500" y="135" />
              <mxPoint x="520" y="135" />
            </Array>
          </mxGeometry>
        </mxCell>
        <mxCell id="stcTqFC_c9L13YkCS5JH-13" value="" style="shape=image;verticalLabelPosition=bottom;labelBackgroundColor=default;verticalAlign=top;aspect=fixed;imageAspect=0;image=https://encrypted-tbn0.gstatic.com/images?q=tbn:ANd9GcT4nGXg1_OZEvdMrmSFH5VwRtK1gdyCctJhaQ&amp;s;" vertex="1" parent="1">
          <mxGeometry x="770" y="95.24" width="73.86" height="84.76" as="geometry" />
        </mxCell>
        <mxCell id="stcTqFC_c9L13YkCS5JH-14" value="DynamoDB" style="text;html=1;align=center;verticalAlign=middle;whiteSpace=wrap;rounded=0;" vertex="1" parent="1">
          <mxGeometry x="570" y="70" width="60" height="30" as="geometry" />
        </mxCell>
        <mxCell id="stcTqFC_c9L13YkCS5JH-15" value="Text" style="text;html=1;align=center;verticalAlign=middle;whiteSpace=wrap;rounded=0;" vertex="1" parent="1">
          <mxGeometry x="410" y="180" width="60" height="30" as="geometry" />
        </mxCell>
        <mxCell id="stcTqFC_c9L13YkCS5JH-16" value="DynamoDB Stream" style="text;html=1;align=center;verticalAlign=middle;whiteSpace=wrap;rounded=0;" vertex="1" parent="1">
          <mxGeometry x="723.86" y="70" width="120" height="30" as="geometry" />
        </mxCell>
      </root>
    </mxGraphModel>
  </diagram>
</mxfile>
